<?xml version="1.0" standalone="no"?>
<!DOCTYPE svg PUBLIC "-//W3C//DTD SVG 20010904//EN"
 "http://www.w3.org/TR/2001/REC-SVG-20010904/DTD/svg10.dtd">
<svg version="1.0" xmlns="http://www.w3.org/2000/svg"
 width="500.000000pt" height="500.000000pt" viewBox="0 0 500.000000 500.000000"
 preserveAspectRatio="xMidYMid meet">
<metadata>
Created by potrace 1.11, written by Peter Selinger 2001-2013
</metadata>
<g transform="translate(0.000000,500.000000) scale(0.100000,-0.100000)"
fill="#000000" stroke="none">
<path d="M1285 4353 c-17 -70 -984 -3670 -989 -3683 -5 -13 5 -14 70 -12 l77
4 -7 -39 c-4 -21 -14 -50 -21 -65 l-13 -28 454 0 454 0 10 22 c6 13 136 496
290 1073 154 578 282 1054 283 1058 1 5 209 -439 461 -985 252 -546 464 -1003
472 -1015 10 -15 24 -23 43 -23 25 0 31 -7 57 -65 l29 -64 375 -1 375 0 26
108 c39 159 261 976 644 2372 l342 1245 -75 3 c-41 2 -76 2 -77 0 -2 -2 -167
-601 -368 -1333 -201 -731 -423 -1539 -494 -1795 l-128 -465 -162 115 c-89 63
-162 120 -163 127 0 7 142 549 316 1205 173 656 361 1365 416 1576 l102 383
240 136 c133 75 249 145 259 155 17 18 2 18 -444 16 l-462 -3 -273 -1015
c-150 -558 -277 -1023 -281 -1033 -6 -13 -125 236 -441 928 -239 520 -439 959
-445 975 -9 25 -17 30 -44 30 -30 0 -35 5 -63 60 l-30 60 -404 0 -404 0 -7
-27z m485 -1048 l18 -430 -285 -1070 c-156 -588 -289 -1087 -295 -1108 -11
-37 -11 -37 -37 -21 -69 44 -341 247 -341 254 0 5 195 631 434 1392 239 761
445 1417 457 1458 l24 75 3 -60 c2 -33 11 -253 22 -490z"/>
</g>
</svg>
